<svg xmlns="http://www.w3.org/2000/svg" viewBox="0 0 24 24" fill="#1C274C" xmlns:v="https://vecta.io/nano"><path d="M6.94 2c.416 0 .753.324.753.724v1.461l2.259-.012h4.016l2.259.012V2.724c0-.4.337-.724.753-.724s.753.324.753.724v1.525c1.445.111 2.394.384 3.091 1.055s.981 1.583 1.097 2.972L22 9H2.925 2v-.724c.116-1.39.4-2.302 1.097-2.972s1.646-.943 3.091-1.055V2.724c0-.4.337-.724.753-.724z"/><path opacity=".5" d="M22 14v-2l-.016-3H2.009L2 12v2c0 3.771 0 5.657 1.172 6.828S6.228 22 10 22h4c3.771 0 5.657 0 6.829-1.172S22 17.771 22 14z"/></svg>