<svg fill="#1C274C" xmlns="http://www.w3.org/2000/svg" xmlns:xlink="http://www.w3.org/1999/xlink" xmlns:svgjs="http://svgjs.com/svgjs" viewBox="0 0 512 512" style="enable-background:new 0 0 512 512" class="">
   <g>
      <path fill-rule="evenodd" d="M326 16H186c-5.5 0-10 4.5-10 10v238.315l3.249-3.249 22.129 9.828a118.307 118.307 0 0 1 18.739-7.77l8.695-22.587h54.377l8.694 22.587a118.268 118.268 0 0 1 18.739 7.77l22.128-9.828 3.25 3.25V26c0-5.5-4.5-10-10-10zm-81.562 210.81c0 3.305-2.695 6-6 6h-25.162c-3.305 0-6-2.695-6-6v-25.162c0-3.305 2.695-6 6-6h25.162c3.305 0 6 2.695 6 6zm0-60.285c0 3.305-2.695 6-6 6h-25.162c-3.305 0-6-2.695-6-6v-25.162c0-3.305 2.695-6 6-6h25.162c3.305 0 6 2.695 6 6zm60.285 60.285c0 3.305-2.695 6-6 6h-25.162c-3.305 0-6-2.695-6-6v-25.162c0-3.305 2.695-6 6-6h25.162c3.304 0 6 2.695 6 6zm0-60.285c0 3.305-2.695 6-6 6h-25.162c-3.305 0-6-2.695-6-6v-25.162c0-3.305 2.695-6 6-6h25.162c3.304 0 6 2.695 6 6zm0-83.404c0 3.305-2.695 6-6 6h-85.447c-3.305 0-6-2.695-6-6V59.343c0-3.305 2.695-6 6-6h85.447c3.305 0 6 2.695 6 6zM160.001 69.646H26c-5.508 0-10 4.492-10 10v319.868c0 5.508 4.492 10 10 10h110l-15.731-6.055V349.08l4.94-1.901h-19.647c-3.305 0-6-2.695-6-6v-25.162c0-3.305 2.695-6 6-6h25.162c3.304 0 6 2.695 6 6v25.162a5.93 5.93 0 0 1-.234 1.657l6.364-2.45a118.289 118.289 0 0 1 7.771-18.742l-9.827-22.126 19.203-19.204zM76.439 341.178c0 3.305-2.695 6-6 6H45.277c-3.305 0-6-2.695-6-6v-25.162c0-3.305 2.695-6 6-6h25.162c3.304 0 6 2.695 6 6zm0-60.284c0 3.305-2.695 6-6 6H45.277c-3.305 0-6-2.695-6-6v-25.162c0-3.305 2.695-6 6-6h25.162c3.304 0 6 2.695 6 6zm0-60.284c0 3.305-2.695 6-6 6H45.277c-3.305 0-6-2.695-6-6v-25.162c0-3.304 2.695-6 6-6h25.162c3.304 0 6 2.695 6 6zm60.284 60.284c0 3.305-2.695 6-6 6h-25.162c-3.305 0-6-2.695-6-6v-25.162c0-3.305 2.695-6 6-6h25.162c3.304 0 6 2.695 6 6zm0-60.284c0 3.305-2.695 6-6 6h-25.162c-3.305 0-6-2.695-6-6v-25.162c0-3.304 2.695-6 6-6h25.162c3.304 0 6 2.695 6 6zm.001-78.694c0 3.305-2.695 6-6 6H45.277c-3.305 0-6-2.695-6-6v-23.778c0-3.305 2.695-6 6-6h85.447c3.305 0 6 2.695 6 6zm352.628 5.367L352 98.415v181.9l19.203 19.202-9.826 22.122a118.28 118.28 0 0 1 7.772 18.748l6.361 2.448a5.971 5.971 0 0 1-.234-1.657v-25.162c0-3.305 2.695-6 6-6h25.162c3.305 0 6 2.695 6 6v25.162c0 3.305-2.695 6-6 6h-19.647l4.939 1.901v54.378l-15.733 6.056H486c5.508 0 10-4.492 10-10V156.705c0-4.31-2.588-7.977-6.648-9.422zm-76.914 133.611c0 3.305-2.695 6-6 6h-25.162c-3.304 0-6-2.695-6-6v-25.162c0-3.305 2.695-6 6-6h25.162c3.305 0 6 2.695 6 6zm60.285 60.284c0 3.305-2.695 6-6 6h-25.162c-3.304 0-6-2.695-6-6v-25.162c0-3.305 2.695-6 6-6h25.162c3.305 0 6 2.695 6 6zm0-60.284c0 3.305-2.695 6-6 6h-25.162c-3.304 0-6-2.695-6-6v-25.162c0-3.305 2.695-6 6-6h25.162c3.305 0 6 2.695 6 6zm4.612-77.283c0 3.305-2.695 6-6 6h-94.671c-3.305 0-6-2.695-6-6v-27.165c0-3.305 2.695-6 6-6h94.671c3.304 0 6 2.695 6 6zm-121.44 148.818a102.16 102.16 0 0 0-12.407-29.929l8.633-19.438-22.916-22.915-19.443 8.635a102.185 102.185 0 0 0-29.921-12.405l-7.637-19.841h-32.407l-7.638 19.841a102.202 102.202 0 0 0-29.922 12.405l-19.443-8.635-22.916 22.916 8.635 19.441a102.188 102.188 0 0 0-12.406 29.923l-19.839 7.637v32.407l19.836 7.635a102.186 102.186 0 0 0 12.407 29.929l-8.633 19.437 22.916 22.916 19.443-8.635a102.21 102.21 0 0 0 29.921 12.404L239.797 496h32.407l7.635-19.837a102.16 102.16 0 0 0 29.929-12.407l19.437 8.633 22.916-22.916-8.635-19.443a102.204 102.204 0 0 0 12.404-29.922l19.842-7.637v-32.407zM256 432.787c-31.217 0-56.518-25.301-56.518-56.518S224.783 319.75 256 319.75s56.518 25.302 56.518 56.519c0 31.216-25.301 56.518-56.518 56.518z" opacity="0.5"></path>
   </g>
</svg>