<svg xmlns="http://www.w3.org/2000/svg" version="1.1" xmlns:xlink="http://www.w3.org/1999/xlink" xmlns:svgjs="http://svgjs.com/svgjs" width="512" height="512" x="0" y="0" viewBox="0 0 512 512" style="enable-background:new 0 0 512 512" xml:space="preserve" class="hovered-paths"><g><path d="M292.545 325.52a45.258 45.258 0 0 1-17.589 10.871l-63.641 21.213a44.9 44.9 0 0 1-14.229 2.31h-.001c-12.021 0-23.321-4.681-31.82-13.181-12.131-12.134-16.295-29.778-10.87-46.051l21.214-63.638a45.208 45.208 0 0 1 10.87-17.59L323.934 82H55c-30.327 0-55 24.673-55 55v320c0 30.327 24.673 55 55 55h320c30.327 0 55-24.673 55-55V188.066z" fill="#fff" class="hovered-path" opacity="1"></path><path d="M207.693 240.668a14.993 14.993 0 0 0-3.623 5.863l-21.214 63.639a15 15 0 0 0 18.973 18.973l63.64-21.213a14.986 14.986 0 0 0 5.863-3.623l187.384-187.383-63.639-63.639zM476.393 7.322c-9.763-9.763-25.592-9.763-35.355 0l-24.749 24.749 63.64 63.64 24.749-24.749c9.763-9.763 9.763-25.592 0-35.355z" fill="#fff" class="hovered-path" opacity="1"></path></g></svg>