<svg xmlns="http://www.w3.org/2000/svg" width="35" height="35" viewBox="0 0 24 24" fill="none" stroke="#000" stroke-width="1.5" xmlns:v="https://vecta.io/nano"><path opacity=".5" d="M22 10.5V12c0 4.714 0 7.071-1.465 8.535S16.714 22 12 22s-7.071 0-8.536-1.465S2 16.714 2 12s0-7.071 1.464-8.536S7.286 2 12 2h1.5" stroke-linecap="round"/><path d="M17.301 2.806l-.649.649-5.965 5.965-.78.829c-.205.263-.381.547-.524.848-.122.255-.212.526-.393 1.068L8.412 13.9l-.374 1.123a.74.74 0 0 0 .939.939l1.123-.374 1.735-.578 1.068-.393a4.59 4.59 0 0 0 .848-.524c.223-.174.425-.376.829-.78l5.965-5.965.649-.649c1.075-1.075 1.075-2.818 0-3.893s-2.818-1.075-3.893 0z"/><path opacity=".5" d="M16.652 3.455s.081 1.379 1.298 2.595 2.595 1.298 2.595 1.298M10.1 15.588L8.413 13.9"/></svg>