<svg xmlns="http://www.w3.org/2000/svg" viewBox="0 0 24 24" fill="#1C274C" xmlns:v="https://vecta.io/nano"><path d="M15.5 7.5a3.5 3.5 0 1 1-7 0 3.5 3.5 0 1 1 7 0z"/><path opacity=".4" d="M19.5 7.5a2.5 2.5 0 1 1-5 0 2.5 2.5 0 1 1 5 0zm-15 0a2.5 2.5 0 1 0 5 0 2.5 2.5 0 1 0-5 0z"/><path d="M18 16.5c0 1.933-2.686 3.5-6 3.5s-6-1.567-6-3.5S8.686 13 12 13s6 1.567 6 3.5z"/><path opacity=".4" d="M22 16.5c0 1.381-1.791 2.5-4 2.5s-4-1.119-4-2.5 1.791-2.5 4-2.5 4 1.119 4 2.5zm-20 0C2 17.881 3.791 19 6 19s4-1.119 4-2.5S8.209 14 6 14s-4 1.119-4 2.5z"/></svg>