<svg xmlns="http://www.w3.org/2000/svg" version="1.1" xmlns:xlink="http://www.w3.org/1999/xlink" xmlns:svgjs="http://svgjs.com/svgjs" width="512" height="512" x="0" y="0" viewBox="0 0 512 512" style="enable-background:new 0 0 512 512" xml:space="preserve" class=""><g><linearGradient id="a" x1="186.516" x2="566.38" y1="161.751" y2="541.615" gradientUnits="userSpaceOnUse"><stop offset="0" stop-color="#1d1d1b"></stop><stop offset=".369" stop-color="#1d1d1b" stop-opacity=".856"></stop><stop offset=".75" stop-color="#1d1d1b" stop-opacity=".429"></stop><stop offset="1" stop-color="#1d1d1b" stop-opacity="0"></stop></linearGradient><circle cx="256" cy="256" r="250" fill="#1877f2" data-original="#1877f2" class=""></circle><path fill="url(#a)" d="M483.689 359.371a22.7 22.7 0 0 1 3.035-6.966A249.219 249.219 0 0 0 506 256c0-1.789-.03-3.57-.068-5.35L344.011 88.729a426.8 426.8 0 0 0-46.539-2.379c-46.054 0-77.573 28.1-77.573 79.729V210.6h-51.91v60.5L219.9 323v102.65l77 77a250.317 250.317 0 0 0 186.789-143.279z" opacity=".49" data-original="url(#a)"></path><path fill="#ffffff" d="M282.345 425.65V271.1h52.1l7.806-60.5h-59.906v-38.529c0-17.475 4.851-29.382 29.908-29.382h31.757V88.728a427.147 427.147 0 0 0-46.539-2.378c-46.054 0-77.573 28.1-77.573 79.729V210.6h-51.909v60.5H219.9v154.55z" data-original="#ffffff" class=""></path></g></svg>