<svg xmlns="http://www.w3.org/2000/svg" viewBox="0 0 36 36" fill="#1c274c" xmlns:v="https://vecta.io/nano"><path d="M30 8.62a1.15 1.15 0 0 1 0 2.29 1.15 1.15 0 1 1 0-2.29zM5.17 27.58a1.15 1.15 0 1 1 1.15-1.15 1.15 1.15 0 0 1-1.15 1.15zM23.49 12a7.89 7.89 0 0 0-9-1.24c-3 1.61-4.74 5.57-4.35 10.41a15.6 15.6 0 0 1-4.53-3.32C2.22 14.24 1.1 10 2.75 7.35s6.07-3.88 9.42-.27c1.09-4.79 5.51-6 8.28-4.47C23 4 24.18 7.67 23.49 12z"/><path opacity=".5" d="M30.43 28c-2.43 2.71-7.23 4.8-11.11 6-2.42-2.63-5.15-6.19-6.23-9.45-1.56-4.19-.77-10.31 2.45-11.79a5.61 5.61 0 0 1 7.26 2 7 7 0 0 1 1 2.47c.16-.17.34-.32.47-.47 3.27-3 7.38-1.83 9 .75s.5 6.87-2.84 10.49zM28.35 3.08a.46.46 0 0 1 .29-.43.44.44 0 0 1 .51.11l.45.5a.47.47 0 0 0 .35.15h.67a.45.45 0 0 1 .32.79l-.49.45a.44.44 0 0 0-.15.35v.67a.46.46 0 0 1-.8.32l-.45-.49a.44.44 0 0 0-.35-.15h-.67a.47.47 0 0 1-.44-.29.45.45 0 0 1 .12-.51l.49-.45a.44.44 0 0 0 .15-.35v-.67zM9.65 31.42a.46.46 0 0 1-.86 0l-.23-.63a.51.51 0 0 0-.27-.27l-.63-.23a.46.46 0 0 1 0-.86l.63-.23a.45.45 0 0 0 .27-.27c.06-.15.14-.38.23-.62a.46.46 0 0 1 .86 0l.23.62a.45.45 0 0 0 .27.27l.63.23a.46.46 0 0 1 0 .86l-.63.23a.51.51 0 0 0-.27.27c-.05.16-.14.39-.23.63z"/></svg>