<svg xmlns="http://www.w3.org/2000/svg" viewBox="0 0 24 24" fill="#1C274C" xmlns:v="https://vecta.io/nano"><path opacity=".5" d="M3 10c0-3.771 0-5.657 1.172-6.828S7.229 2 11 2h2c3.771 0 5.657 0 6.828 1.172S21 6.229 21 10v4c0 3.771 0 5.657-1.172 6.828S16.771 22 13 22h-2c-3.771 0-5.657 0-6.828-1.172S3 17.771 3 14v-4z"/><path d="M7.25 12a.75.75 0 0 1 .75-.75h8a.75.75 0 1 1 0 1.5H8a.75.75 0 0 1-.75-.75zm0-4A.75.75 0 0 1 8 7.25h8a.75.75 0 1 1 0 1.5H8A.75.75 0 0 1 7.25 8zm0 8a.75.75 0 0 1 .75-.75h5a.75.75 0 1 1 0 1.5H8a.75.75 0 0 1-.75-.75z" fill-rule="evenodd"/></svg>