<svg xmlns="http://www.w3.org/2000/svg" xmlns:xlink="http://www.w3.org/1999/xlink" xmlns:svgjs="http://svgjs.com/svgjs" width="512" height="512" x="0" y="0" viewBox="0 0 512 512" style="enable-background:new 0 0 512 512" xml:space="preserve" class="">
   <g>
      <path d="M358.4 0H153.6c-28.221 0-51.2 22.979-51.2 51.2v409.6c0 28.242 22.979 51.2 51.2 51.2h204.8c28.242 0 51.2-22.958 51.2-51.2V51.2c0-28.221-22.958-51.2-51.2-51.2zm30.72 460.8c0 16.937-13.783 30.72-30.72 30.72H153.6c-16.937 0-30.72-13.783-30.72-30.72V51.2c0-16.937 13.783-30.72 30.72-30.72h204.8c16.937 0 30.72 13.783 30.72 30.72v409.6z" fill="#000000" data-original="#000000" class=""></path>
      <path d="M276.48 40.96h-40.96c-5.653 0-10.24 4.588-10.24 10.24s4.588 10.24 10.24 10.24h40.96c5.652 0 10.24-4.588 10.24-10.24s-4.588-10.24-10.24-10.24zM256 450.56c-5.652 0-10.24 4.588-10.24 10.24s4.588 10.24 10.24 10.24 10.24-4.588 10.24-10.24-4.588-10.24-10.24-10.24zM399.36 81.92H112.64c-5.653 0-10.24 4.588-10.24 10.24 0 5.653 4.587 10.24 10.24 10.24h286.72c5.652 0 10.24-4.588 10.24-10.24s-4.588-10.24-10.24-10.24zM399.36 409.6H112.64c-5.653 0-10.24 4.588-10.24 10.24s4.587 10.24 10.24 10.24h286.72c5.652 0 10.24-4.588 10.24-10.24s-4.588-10.24-10.24-10.24z" fill="#000000" data-original="#000000" class=""></path>
   </g>
</svg>