<svg xmlns="http://www.w3.org/2000/svg" width="512" height="512" viewBox="0 0 447.493 447.493" xmlns:v="https://vecta.io/nano"><path d="M401.693 45.8c-62.276-61.565-162.669-60.988-224.234 1.288-56.731 57.387-61.314 148.228-10.646 211.032L4.733 420.04c-6.274 6.223-6.315 16.353-.093 22.627l.093.093c6.223 6.274 16.353 6.315 22.627.093l.093-.093 161.92-162.08c68.156 54.985 167.981 44.308 222.966-23.848 50.668-62.805 46.085-153.646-10.646-211.032zm-22.72 201.6c-49.396 49.453-129.53 49.499-178.983.103s-49.499-129.53-.103-178.983 129.53-49.499 178.983-.103l.103.103c49.268 49.449 49.268 129.43 0 178.88z"/></svg>