<svg xmlns="http://www.w3.org/2000/svg" viewBox="0 0 24 24" fill="#1C274C" xmlns:v="https://vecta.io/nano"><path d="M8.422 20.618C10.178 21.54 11.056 22 12 22V12L2.638 7.073l-.041.067C2 8.154 2 9.417 2 11.942v.117c0 2.525 0 3.787.597 4.802s1.673 1.579 3.825 2.708l2 1.049z"/><path opacity=".7" d="M17.577 4.432l-2-1.05C13.822 2.461 12.944 2 12 2s-1.822.461-3.578 1.382l-2 1.05C4.318 5.536 3.243 6.1 2.638 7.073L12 12l9.362-4.927c-.605-.973-1.681-1.537-3.784-2.641z"/><path opacity=".5" d="M21.403 7.14l-.041-.067L12 12v10c.944 0 1.822-.461 3.578-1.382l2-1.049c2.152-1.129 3.227-1.694 3.825-2.708S22 14.583 22 12.059v-.117c0-2.525 0-3.787-.597-4.802z"/></svg>