<svg xmlns="http://www.w3.org/2000/svg" xmlns:xlink="http://www.w3.org/1999/xlink" xmlns:svgjs="http://svgjs.com/svgjs" width="512" height="512" x="0" y="0" viewBox="0 0 512 512" style="enable-background:new 0 0 512 512" xml:space="preserve" class=""><g><path d="M436 60h-89.185l-9.75-29.238A44.945 44.945 0 0 0 294.379 0h-76.758a44.975 44.975 0 0 0-42.7 30.762L165.182 60H76c-24.814 0-45 20.186-45 45v30c0 16.708 15.041 15 31.183 15H466c8.291 0 15-6.709 15-15v-30c0-24.814-20.186-45-45-45zm-239.187 0 6.57-19.746A14.996 14.996 0 0 1 217.621 30h76.758c6.46 0 12.188 4.116 14.224 10.254L315.18 60H196.813zM64.666 182l23.917 289.072C90.707 494.407 109.97 512 133.393 512h245.215c23.423 0 42.686-17.593 44.824-41.06L447.336 182H64.666zM181 437c0 19.773-30 19.854-30 0V227c0-19.773 30-19.854 30 0v210zm90 0c0 19.773-30 19.854-30 0V227c0-19.773 30-19.854 30 0v210zm90 0c0 19.773-30 19.854-30 0V227c0-8.291 6.709-15 15-15s15 6.709 15 15v210z" fill="#fff" opacity="1"></path></g></svg>